<?xml version="1.0" encoding="UTF-8" standalone="no"?>
<!-- Created with Inkscape (http://www.inkscape.org/) -->

<svg
   version="1.1"
   id="svg1"
   width="646"
   height="181"
   viewBox="0 0 646 181"
   sodipodi:docname="GGAILABS_HORIZINTAL_FINAL.svg"
   xml:space="preserve"
   inkscape:version="1.4.2 (1:1.4.2+202505120737+ebf0e940d0)"
   xmlns:inkscape="http://www.inkscape.org/namespaces/inkscape"
   xmlns:sodipodi="http://sodipodi.sourceforge.net/DTD/sodipodi-0.dtd"
   xmlns="http://www.w3.org/2000/svg"
   xmlns:svg="http://www.w3.org/2000/svg"><defs
     id="defs1"><clipPath
       id="d7083494fc"><path
         d="M 0.945312 1.195312 L 134.054688 1.195312 L 134.054688 134.304688 L 0.945312 134.304688 Z M 0.945312 1.195312 "
         clip-rule="nonzero"
         id="path1" /></clipPath><clipPath
       id="839c2848a9"><path
         d="M 23.402344 1.195312 L 111.597656 1.195312 C 117.550781 1.195312 123.265625 3.5625 127.476562 7.773438 C 131.6875 11.984375 134.054688 17.699219 134.054688 23.652344 L 134.054688 111.847656 C 134.054688 117.804688 131.6875 123.515625 127.476562 127.726562 C 123.265625 131.9375 117.550781 134.304688 111.597656 134.304688 L 23.402344 134.304688 C 17.445312 134.304688 11.734375 131.9375 7.523438 127.726562 C 3.3125 123.515625 0.945312 117.804688 0.945312 111.847656 L 0.945312 23.652344 C 0.945312 17.699219 3.3125 11.984375 7.523438 7.773438 C 11.734375 3.5625 17.445312 1.195312 23.402344 1.195312 Z M 23.402344 1.195312 "
         clip-rule="nonzero"
         id="path2" /></clipPath></defs><sodipodi:namedview
     id="namedview1"
     pagecolor="#505050"
     bordercolor="#ffffff"
     borderopacity="1"
     inkscape:showpageshadow="0"
     inkscape:pageopacity="0"
     inkscape:pagecheckerboard="1"
     inkscape:deskcolor="#505050"
     inkscape:zoom="4"
     inkscape:cx="438.75"
     inkscape:cy="79.75"
     inkscape:window-width="2560"
     inkscape:window-height="1052"
     inkscape:window-x="1920"
     inkscape:window-y="0"
     inkscape:window-maximized="1"
     inkscape:current-layer="g2" /><g
     inkscape:groupmode="layer"
     inkscape:label="Image"
     id="g1"><g
       id="g2"
       transform="matrix(1.3333333,0,0,1.3333333,1.8046934,0.16666892)"
       style="display:inline"
       inkscape:label="LOGO"><g
         clip-path="url(#d7083494fc)"
         id="g4"
         style="fill:#000000;stroke:#e8a8d2;stroke-width:0;stroke-dasharray:none;stroke-opacity:1;fill-opacity:1"
         transform="matrix(1.0113414,0,0,1.0113414,-0.76554686,-0.76838222)"
         inkscape:label="QUADRADO"><g
           clip-path="url(#839c2848a9)"
           id="g3"
           style="fill:#000000;stroke:#e8a8d2;stroke-width:0;stroke-dasharray:none;stroke-opacity:1;fill-opacity:1"><path
             fill="#020202"
             d="M 0.945312,1.195312 H 134.05469 V 134.30469 H 0.945312 Z"
             fill-opacity="1"
             fill-rule="nonzero"
             id="path3"
             style="fill:#000000;fill-opacity:1;stroke:#e8a8d2;stroke-width:0;stroke-dasharray:none;stroke-opacity:1"
             sodipodi:nodetypes="ccccc" /></g></g><g
         id="g6"
         transform="translate(0.07913)"
         inkscape:label="GENESIS"
         style="stroke:#e8a8d2;stroke-opacity:1;stroke-width:0;stroke-dasharray:none"><path
           fill="#020202"
           d="m 185.90342,41.148542 h 6.56983 v 16.574771 c -2.29667,1.668149 -5.00445,3.075404 -8.13125,4.170374 -3.0754,1.043582 -6.12708,1.565374 -9.17482,1.565374 -4.32454,0 -8.23402,-0.992194 -11.77983,-3.024017 -3.5458,-2.008104 -6.36031,-4.743554 -8.44353,-8.234019 -2.03182,-3.466749 -3.02401,-7.297169 -3.02401,-11.467544 0,-4.221763 1.04358,-8.052183 3.12679,-11.467543 2.08716,-3.466747 4.92539,-6.174527 8.55026,-8.131243 3.5972,-2.004152 7.63317,-3.024015 12.09211,-3.024015 3.1268,0 6.17452,0.573179 9.17087,1.668149 3.05169,1.122641 5.6567,2.660343 7.81896,4.589389 l -4.27315,5.522288 c -1.66815,-1.58909 -3.64858,-2.838227 -5.94131,-3.751361 -2.24132,-0.885464 -4.48265,-1.355865 -6.77537,-1.355865 -2.99635,0 -5.73575,0.731297 -8.23797,2.18994 -2.44688,1.407255 -4.37593,3.308629 -5.83458,5.731795 -1.40724,2.450837 -2.08716,5.111181 -2.08716,8.028466 0,2.917287 0.67992,5.629018 2.08716,8.131243 1.45865,2.450837 3.43908,4.352212 5.94131,5.731795 2.50222,1.407255 5.21,2.087164 8.13124,2.087164 1.66815,0 3.36002,-0.237177 5.10723,-0.731297 1.7986,-0.54551 3.49047,-1.304478 5.10722,-2.292718 z m 0,0"
           fill-opacity="1"
           fill-rule="nonzero"
           id="path4"
           style="stroke-width:0;stroke:#e8a8d2;stroke-opacity:1;stroke-dasharray:none" /><path
           fill="#020202"
           d="M 212.61754,62.937269 V 18.529693 h 31.69091 v 6.775377 h -24.18423 v 11.989335 h 21.682 v 6.668646 h -21.682 v 12.301618 h 24.91552 v 6.6726 z m 0,0"
           fill-opacity="1"
           fill-rule="nonzero"
           id="path5"
           style="stroke-width:0;stroke:#e8a8d2;stroke-opacity:1;stroke-dasharray:none" /><path
           fill="#020202"
           d="M 294.83916,50.635651 V 18.529693 h 7.39994 v 44.407576 h -7.39994 L 271.2795,31.036865 v 31.900404 h -7.50667 V 18.529693 H 271.07 Z m 0,0"
           fill-opacity="1"
           fill-rule="nonzero"
           id="path6"
           style="stroke-width:0;stroke:#e8a8d2;stroke-opacity:1;stroke-dasharray:none" /><path
           fill="#020202"
           d="M 323.54952,62.937269 V 18.529693 h 31.68694 v 6.775377 h -24.18421 v 11.989335 h 21.68594 v 6.668646 h -21.68594 v 12.301618 h 24.91551 v 6.6726 z m 0,0"
           fill-opacity="1"
           fill-rule="nonzero"
           id="path7"
           style="stroke-width:0;stroke:#e8a8d2;stroke-opacity:1;stroke-dasharray:none" /><path
           fill="#020202"
           d="m 401.70353,29.163161 c -2.29667,-1.383536 -4.58938,-2.423166 -6.8821,-3.126793 -2.29272,-0.679909 -4.35221,-1.043582 -6.15081,-1.043582 -2.16227,0 -3.90949,0.415061 -5.21,1.249137 -1.33216,0.834074 -1.98044,2.035774 -1.98044,3.545806 0,1.328196 0.41506,2.450837 1.24913,3.3363 0.83408,0.913135 1.87766,1.64048 3.1268,2.189942 1.30448,0.49412 3.12679,1.09497 5.42346,1.770927 2.96867,0.913133 5.41951,1.822315 7.29717,2.711731 1.8737,0.834076 3.46279,2.1346 4.79494,3.854139 1.30053,1.668149 1.98044,3.93715 1.98044,6.775376 0,2.581284 -0.73131,4.874003 -2.18994,6.882107 -1.40726,1.952764 -3.33631,3.439078 -5.83853,4.48266 -2.50222,1.043582 -5.39579,1.56142 -8.65303,1.56142 -3.49047,0 -6.82677,-0.624569 -10.00495,-1.873705 -3.1268,-1.253088 -5.83852,-2.972627 -8.13124,-5.213957 l 3.22957,-6.463092 c 2.21761,2.087164 4.64077,3.727643 7.29716,4.901673 2.71174,1.118687 5.26535,1.668149 7.71618,1.668149 2.55362,0 4.58544,-0.470402 6.04409,-1.462595 1.51398,-0.964523 2.29272,-2.316437 2.29272,-4.063645 0,-1.379585 -0.46645,-2.529896 -1.35192,-3.439078 -0.83407,-0.885463 -1.92904,-1.58909 -3.23352,-2.087164 -1.32819,-0.545508 -3.10308,-1.170077 -5.31674,-1.873703 -3.0754,-0.834076 -5.52624,-1.668151 -7.39994,-2.502225 -1.82627,-0.885464 -3.38769,-2.189942 -4.69217,-3.858091 -1.32819,-1.668151 -1.98043,-3.881809 -1.98043,-6.6726 0,-2.502226 0.65224,-4.692166 1.98043,-6.565871 1.37959,-1.877656 3.28491,-3.3363 5.7318,-4.379882 2.42712,-1.039628 5.24163,-1.56142 8.44748,-1.56142 2.75916,0 5.52229,0.46645 8.23402,1.351913 2.70778,0.834075 5.1349,1.956717 7.29717,3.3363 z m 0,0"
           fill-opacity="1"
           fill-rule="nonzero"
           id="path8"
           style="stroke-width:0;stroke:#e8a8d2;stroke-opacity:1;stroke-dasharray:none" /><path
           fill="#020202"
           d="m 423.70176,18.529693 h 7.50668 v 44.407576 h -7.50668 z m 0,0"
           fill-opacity="1"
           fill-rule="nonzero"
           id="path9"
           style="stroke-width:0;stroke:#e8a8d2;stroke-opacity:1;stroke-dasharray:none" /><path
           fill="#020202"
           d="m 479.41877,29.163161 c -2.29272,-1.383536 -4.58543,-2.423166 -6.87816,-3.126793 -2.29271,-0.679909 -4.35221,-1.043582 -6.1508,-1.043582 -2.16227,0 -3.90948,0.415061 -5.21396,1.249137 -1.3282,0.834074 -1.98044,2.035774 -1.98044,3.545806 0,1.328196 0.41901,2.450837 1.25309,3.3363 0.83408,0.913135 1.87766,1.64048 3.1268,2.189942 1.30447,0.49412 3.12679,1.09497 5.41951,1.770927 2.97263,0.913133 5.42346,1.822315 7.29716,2.711731 1.87766,0.834076 3.46675,2.1346 4.79494,3.854139 1.30449,1.668149 1.98045,3.93715 1.98045,6.775376 0,2.581284 -0.72735,4.874003 -2.18599,6.882107 -1.40726,1.952764 -3.33631,3.439078 -5.83853,4.48266 -2.50223,1.043582 -5.39579,1.56142 -8.65303,1.56142 -3.49047,0 -6.82677,-0.624569 -10.00891,-1.873705 -3.12679,-1.253088 -5.83456,-2.972627 -8.13123,-5.213957 l 3.23352,-6.463092 c 2.21366,2.087164 4.63682,3.727643 7.29717,4.901673 2.71172,1.118687 5.26534,1.668149 7.71222,1.668149 2.55362,0 4.5894,-0.470402 6.04803,-1.462595 1.51004,-0.964523 2.29273,-2.316437 2.29273,-4.063645 0,-1.379585 -0.47041,-2.529896 -1.35588,-3.439078 -0.83407,-0.885463 -1.92904,-1.58909 -3.22956,-2.087164 -1.3282,-0.545508 -3.10308,-1.170077 -5.31674,-1.873703 -3.0754,-0.834076 -5.52624,-1.668151 -7.4039,-2.502225 -1.82231,-0.885464 -3.38768,-2.189942 -4.68821,-3.858091 -1.3282,-1.668151 -1.98043,-3.881809 -1.98043,-6.6726 0,-2.502226 0.65223,-4.692166 1.98043,-6.565871 1.37958,-1.877656 3.28096,-3.3363 5.73179,-4.379882 2.42318,-1.039628 5.23769,-1.56142 8.44353,-1.56142 2.76312,0 5.52624,0.46645 8.23798,1.351913 2.70777,0.834075 5.13094,1.956717 7.29717,3.3363 z m 0,0"
           fill-opacity="1"
           fill-rule="nonzero"
           id="path10"
           style="stroke-width:0;stroke:#e8a8d2;stroke-opacity:1;stroke-dasharray:none" /></g><g
         id="g7"
         inkscape:label="GRID"
         style="stroke-width:0;stroke-dasharray:none"><path
           fill="#020202"
           d="m 185.90342,95.284358 h 6.56983 v 16.574772 c -2.29667,1.66815 -5.00445,3.07541 -8.13125,4.17038 -3.0754,1.04358 -6.12708,1.56537 -9.17482,1.56537 -4.32454,0 -8.23402,-0.9922 -11.77983,-3.02402 -3.5458,-2.0081 -6.36031,-4.74355 -8.44353,-8.23402 -2.03182,-3.46675 -3.02401,-7.297167 -3.02401,-11.467543 0,-4.221763 1.04358,-8.052183 3.12679,-11.467542 2.08716,-3.466748 4.92539,-6.174528 8.55026,-8.131244 3.5972,-2.008104 7.63317,-3.024016 12.09211,-3.024016 3.1268,0 6.17452,0.57318 9.17087,1.668151 3.05169,1.122641 5.6567,2.660343 7.81896,4.589388 l -4.27315,5.522288 c -1.66815,-1.58909 -3.64858,-2.838226 -5.94131,-3.751361 -2.24132,-0.885463 -4.48265,-1.355866 -6.77537,-1.355866 -2.99635,0 -5.73575,0.731299 -8.23797,2.189942 -2.44688,1.407254 -4.37593,3.308629 -5.83458,5.731794 -1.40724,2.450837 -2.08716,5.107227 -2.08716,8.028466 0,2.917286 0.67992,5.629023 2.08716,8.131243 1.45865,2.44689 3.43908,4.35221 5.94131,5.7318 2.50222,1.40725 5.21,2.08716 8.13124,2.08716 1.66815,0 3.36002,-0.23718 5.10723,-0.7313 1.7986,-0.54551 3.49047,-1.30448 5.10722,-2.29271 z m 0,0"
           fill-opacity="1"
           fill-rule="nonzero"
           id="path11"
           style="stroke-width:0;stroke-dasharray:none" /><path
           fill="#020202"
           d="m 239.65185,117.07309 h -8.44353 l -8.13124,-13.44799 c -0.41506,0.079 -1.09496,0.10279 -1.98043,0.10279 h -10.52674 v 13.3452 h -7.50668 V 72.66551 h 18.03342 c 5.62902,0 10.0089,1.328195 13.13569,3.960867 3.1268,2.656391 4.69216,6.411705 4.69216,11.258036 0,3.545807 -0.81035,6.542153 -2.39944,8.965318 -1.61677,2.450837 -3.85809,4.245479 -6.77538,5.419509 z M 210.56991,96.952509 h 10.52674 c 3.38768,0 6.04803,-0.727345 7.92173,-2.189942 1.87766,-1.510031 2.81451,-3.751361 2.81451,-6.668646 0,-2.921239 -0.93685,-5.055839 -2.81451,-6.463093 -1.8737,-1.462597 -4.53405,-2.189942 -7.92173,-2.189942 h -10.52674 z m 0,0"
           fill-opacity="1"
           fill-rule="nonzero"
           id="path12"
           style="stroke-width:0;stroke-dasharray:none" /><path
           fill="#020202"
           d="m 248.90969,72.66551 h 7.50272 v 44.40758 h -7.50272 z m 0,0"
           fill-opacity="1"
           fill-rule="nonzero"
           id="path13"
           style="stroke-width:0;stroke-dasharray:none" /><path
           fill="#020202"
           d="m 286.19798,72.66551 c 4.43127,0 8.39214,0.98824 11.8826,2.917285 3.46676,1.877657 6.17848,4.534048 8.13125,7.921736 2.00811,3.3363 3.02401,7.143003 3.02401,11.364766 0,4.245481 -1.0159,8.079863 -3.02401,11.467543 -2.03182,3.3363 -4.79494,5.99269 -8.34076,7.92174 -3.49046,1.87766 -7.39994,2.81451 -11.77982,2.81451 H 268.05784 V 72.66551 Z m 0.20951,37.73498 c 2.83823,0 5.41951,-0.65224 7.71222,-1.98043 2.34411,-1.30449 4.1941,-3.15447 5.52625,-5.52625 1.30053,-2.34411 1.98043,-5.000497 1.98043,-7.921736 0,-2.968674 -0.70362,-5.652735 -2.08716,-8.024513 -1.3282,-2.34806 -3.17818,-4.198045 -5.52229,-5.52624 -2.37178,-1.304478 -5.00445,-1.980435 -7.92569,-1.980435 h -10.52674 v 30.959604 z m 0,0"
           fill-opacity="1"
           fill-rule="nonzero"
           id="path14"
           style="stroke-width:0;stroke-dasharray:none" /><path
           fill="#020202"
           d="m 314.07629,116.86358 c -1.45865,0 -2.68407,-0.44273 -3.64858,-1.35191 -0.98824,-0.96453 -1.45865,-2.18994 -1.45865,-3.64859 0,-1.51398 0.44273,-2.7394 1.35587,-3.64858 0.96452,-0.88942 2.21366,-1.35586 3.75136,-1.35586 1.46259,0 2.63267,0.46644 3.5458,1.35586 0.96453,0.90918 1.45865,2.1346 1.45865,3.64858 0,1.45865 -0.49412,2.68406 -1.45865,3.64859 -0.91313,0.90918 -2.08321,1.35191 -3.5458,1.35191 z m 0,0"
           fill-opacity="1"
           fill-rule="nonzero"
           id="path15"
           style="stroke-width:0;stroke-dasharray:none" /></g><path
         fill="#14ff00"
         d="M 67.499998,31.281174 C 58.00762,36.759701 48.515241,42.238228 39.022863,47.712753 l -3.12144,1.800831 V 85.982406 C 46.434281,92.06121 56.96714,98.140014 67.499998,104.21882 77.008384,98.732288 86.51677,93.245757 96.021155,87.759226 l 3.077419,-1.77682 v -3.601661 l -22.254265,-12.841924 -6.19886,3.57765 19.191852,11.0561 C 82.39787,88.466552 74.939429,92.769537 67.499998,97.063517 59.032092,92.177264 50.568188,87.29101 42.100282,82.404756 V 53.091234 l 3.12144,-1.80083 c 7.427426,-4.285978 14.85085,-8.567953 22.278276,-12.853929 8.467907,4.886253 16.935813,9.768505 25.399716,14.654759 l 6.19886,-3.57765 z"
         fill-opacity="1"
         fill-rule="nonzero"
         id="path22"
         sodipodi:nodetypes="ccccccccccccccccccc"
         style="stroke:#e8a8d2;stroke-width:0;stroke-dasharray:none;stroke-opacity:1"
         inkscape:label="G_VERDE" /><path
         fill="#ffffff"
         d="m 17.300845,96.715357 47.097725,27.176533 3.10143,1.78883 3.101431,-1.78883 v -21.4659 L 67.5,104.21481 l -3.105432,-1.78882 0.004,14.3106 -40.89887,-23.598883 V 42.362285 l 40.898865,-23.602887 -0.02001,14.322606 3.121439,-1.80083 3.101431,1.788825 V 18.759398 l 40.898867,23.602887 v 50.775422 l 6.19886,3.57765 V 38.784634 L 70.601431,11.608099 67.5,9.8192741 64.402571,11.608099 17.300845,38.784634 Z"
         fill-opacity="1"
         fill-rule="nonzero"
         id="path23"
         style="stroke:#e8a8d2;stroke-width:0;stroke-dasharray:none;stroke-opacity:1"
         inkscape:label="G_BRANCO"
         sodipodi:nodetypes="cccccccccccccccccccccccc" /><path
         fill="#4a00ff"
         d="M 67.499999,42.6044 C 60.95298,46.382143 54.409961,50.159885 47.862941,53.937628 l -2.152993,1.240571 V 80.3258 c 7.26335,4.189932 14.526701,8.379865 21.790051,12.569798 6.555024,-3.781745 13.110048,-7.563489 19.669073,-11.345233 L 89.29005,80.3258 v -3.605664 l -12.44574,-7.179311 -6.19886,3.57765 11.297211,6.515005 C 76.808293,82.594846 72.630365,85.003958 67.499999,87.965324 61.661306,84.595769 55.822612,81.226215 49.98392,77.856661 V 57.643337 l 2.152993,-1.240572 c 5.122362,-2.953363 10.240724,-5.910726 15.363086,-8.864089 5.838693,3.369555 11.677386,6.739108 17.51608,10.104661 l 4.273971,-2.465138 z m 0,0"
         fill-opacity="1"
         fill-rule="nonzero"
         id="path24"
         style="stroke:#e8a8d2;stroke-width:0;stroke-dasharray:none;stroke-opacity:1;fill:#3737c8;fill-opacity:1"
         inkscape:label="G_AZUL" /></g><g
       id="g9"
       inkscape:label="LABS"
       style="stroke-width:0;stroke-dasharray:none"><path
         fill="#00ff00"
         d="m 371.16303,116.65802 c -0.2095,0 -0.39134,-0.0553 -0.52179,-0.2095 -0.15416,-0.13045 -0.20951,-0.31228 -0.20951,-0.5218 V 72.66551 c 0,-0.209508 0.0554,-0.363673 0.20951,-0.521791 0.13045,-0.130449 0.31229,-0.209507 0.52179,-0.209507 h 7.50668 c 0.20555,0 0.36367,0.07905 0.52179,0.209507 0.13045,0.158118 0.20556,0.312283 0.20556,0.521791 v 35.96405 c 0,0.20951 0.10673,0.31228 0.31228,0.31228 h 13.44797 c 0.20951,0 0.36763,0.079 0.5218,0.20951 0.2095,0.15417 0.31228,0.31229 0.31228,0.52179 v 6.25358 c 0,0.20952 -0.10278,0.39135 -0.31228,0.5218 -0.15417,0.15416 -0.31229,0.2095 -0.5218,0.2095 z m 0,0"
         fill-opacity="1"
         fill-rule="nonzero"
         id="path18"
         style="display:inline;stroke-width:0;stroke-dasharray:none"
         transform="matrix(1.3333333,0,0,1.3333333,1.8046934,0.16666892)" /><path
         fill="#00ff00"
         d="m 416.64977,116.65802 c -0.49807,0 -0.78269,-0.23717 -0.83408,-0.7313 l -1.04358,-6.1508 c 0,-0.20951 -0.10277,-0.31228 -0.31229,-0.31228 h -8.13123 c -0.28857,0 -0.41902,0.10277 -0.41902,0.31228 l -1.03963,6.1508 c 0,0.49413 -0.28856,0.7313 -0.83408,0.7313 h -7.40389 c -0.57318,0 -0.77873,-0.26089 -0.62457,-0.83407 l 9.38433,-43.15844 c 0.0514,-0.470403 0.33601,-0.731298 0.83408,-0.731298 h 8.5463 c 0.4704,0 0.75501,0.260895 0.83408,0.731298 l 9.38038,43.15844 0.10673,0.20556 c 0,0.41901 -0.26091,0.62851 -0.7313,0.62851 z m -9.48711,-14.49155 c 0,0.28856 0.10278,0.41505 0.31228,0.41505 h 5.73179 c 0.20951,0 0.31229,-0.12649 0.31229,-0.41505 l -3.02006,-17.40885 c -0.079,-0.130448 -0.15812,-0.209507 -0.20951,-0.209507 -0.079,0 -0.15812,0.07906 -0.2095,0.209507 z m 0,0"
         fill-opacity="1"
         fill-rule="nonzero"
         id="path19"
         style="display:inline;stroke-width:0;stroke-dasharray:none"
         transform="matrix(1.3333333,0,0,1.3333333,1.8046934,0.16666892)" /><path
         fill="#00ff00"
         d="m 454.55472,104.35641 c 0,3.96086 -1.19775,7.03627 -3.54581,9.17087 -2.37177,2.08716 -5.4709,3.13074 -9.2776,3.13074 H 429.6392 c -0.20555,0 -0.39134,-0.0553 -0.52179,-0.2095 -0.15416,-0.13045 -0.20556,-0.31228 -0.20556,-0.5218 V 72.66551 c 0,-0.209508 0.0514,-0.363673 0.20556,-0.521791 0.13045,-0.130449 0.31624,-0.209507 0.52179,-0.209507 h 10.7402 c 4.22176,0 7.53039,1.043582 9.90217,3.130746 2.42316,2.031822 3.64858,5.055838 3.64858,9.068094 0,4.245482 -1.43492,7.297168 -4.27315,9.170872 -0.20951,0.158119 -0.2609,0.288566 -0.10672,0.419015 3.33629,2.371777 5.00444,5.917584 5.00444,10.633471 z M 438.18946,79.650394 c -0.20951,0 -0.31229,0.102776 -0.31229,0.312283 v 10.0089 c 0,0.205554 0.10278,0.312284 0.31229,0.312284 h 2.39549 c 1.38354,0 2.50223,-0.442731 3.33631,-1.355866 0.83406,-0.885463 1.25309,-2.18994 1.25309,-3.858091 0,-1.719538 -0.41903,-3.047733 -1.25309,-3.960867 -0.78269,-0.964523 -1.87766,-1.458643 -3.33631,-1.458643 z m 2.8145,29.188676 c 1.45865,0 2.55362,-0.47041 3.33631,-1.45865 0.83408,-1.04358 1.24913,-2.50222 1.24913,-4.37988 0,-1.87765 -0.41505,-3.360017 -1.24913,-4.482658 -0.78269,-1.094971 -1.84999,-1.668151 -3.23352,-1.668151 h -2.91729 c -0.20951,0 -0.31229,0.102778 -0.31229,0.312284 v 11.364765 c 0,0.20556 0.10278,0.31229 0.31229,0.31229 z m 0,0"
         fill-opacity="1"
         fill-rule="nonzero"
         id="path20"
         style="display:inline;stroke-width:0;stroke-dasharray:none"
         transform="matrix(1.3333333,0,0,1.3333333,1.8046934,0.16666892)" /><path
         fill="#00ff00"
         d="m 470.63932,117.17586 c -2.45084,0 -4.58939,-0.49412 -6.46309,-1.45864 -1.87766,-0.96452 -3.33629,-2.32039 -4.37988,-4.06364 -1.04358,-1.79861 -1.56537,-3.85809 -1.56537,-6.15082 v -1.87766 c 0,-0.2095 0.0554,-0.36366 0.2095,-0.52178 0.20951,-0.13045 0.41901,-0.20556 0.62457,-0.20556 h 7.29717 c 0.20951,0 0.36763,0.0751 0.52179,0.20556 0.2095,0.15812 0.31229,0.31228 0.31229,0.52178 v 1.35588 c 0,1.32819 0.31228,2.39944 0.9408,3.23352 0.67595,0.83012 1.56142,1.24914 2.605,1.24914 1.04358,0 1.87766,-0.36368 2.50223,-1.14637 0.67596,-0.75501 1.04358,-1.77093 1.04358,-3.02401 0,-1.30052 -0.41901,-2.42317 -1.25309,-3.3363 -0.83407,-0.88546 -2.50223,-2.241332 -5.00446,-4.063647 -2.0832,-1.513984 -3.80274,-2.865897 -5.10722,-4.067598 -1.32819,-1.170076 -2.47455,-2.632672 -3.43908,-4.375929 -0.91313,-1.719539 -1.35586,-3.755313 -1.35586,-6.048031 0,-3.597196 1.09497,-6.486812 3.3363,-8.653034 2.29272,-2.213659 5.26535,-3.332347 8.96532,-3.332347 3.75136,0 6.72399,1.146358 8.96531,3.439076 2.29273,2.24133 3.43908,5.186286 3.43908,8.858588 v 1.462596 c 0,0.205554 -0.079,0.415061 -0.2095,0.624568 -0.15417,0.154166 -0.31228,0.205555 -0.5218,0.205555 h -7.29716 c -0.28461,0 -0.49412,-0.05139 -0.62457,-0.205555 -0.15416,-0.209507 -0.20951,-0.419014 -0.20951,-0.624568 v -1.668149 c 0,-1.304478 -0.36367,-2.34806 -1.03963,-3.130746 -0.62456,-0.834075 -1.45864,-1.249137 -2.50222,-1.249137 -1.04358,0 -1.87766,0.391343 -2.50223,1.146359 -0.62457,0.782686 -0.93685,1.826268 -0.93685,3.126794 0,1.253088 0.36368,2.371777 1.14636,3.3363 0.83407,0.992192 2.42316,2.344106 4.79494,4.067597 2.63268,2.031823 4.61311,3.620914 5.94131,4.794943 1.37958,1.197748 2.42316,2.553614 3.12679,4.063645 0.75502,1.45865 1.14635,3.20585 1.14635,5.21396 0,3.75136 -1.14635,6.7477 -3.43907,8.96532 -2.29272,2.24132 -5.31674,3.33234 -9.0681,3.33234 z m 0,0"
         fill-opacity="1"
         fill-rule="nonzero"
         id="path21"
         style="display:inline;stroke-width:0;stroke-dasharray:none"
         transform="matrix(1.3333333,0,0,1.3333333,1.8046934,0.16666892)" /></g><g
       id="g8"
       inkscape:label="AI"
       style="stroke-width:0;stroke-dasharray:none;fill:#3737c8"><path
         fill="#4a00ff"
         d="m 343.22745,116.65802 c -0.49808,0 -0.78269,-0.23717 -0.83408,-0.7313 l -1.04358,-6.1508 c 0,-0.20951 -0.10277,-0.31228 -0.31228,-0.31228 h -8.13125 c -0.28857,0 -0.41506,0.10277 -0.41506,0.31228 l -1.04358,6.1508 c 0,0.49413 -0.28856,0.7313 -0.83407,0.7313 h -7.39994 c -0.57714,0 -0.78269,-0.26089 -0.62853,-0.83407 l 9.38433,-43.15844 c 0.0514,-0.470403 0.336,-0.731298 0.83408,-0.731298 h 8.5463 c 0.4704,0 0.75501,0.260895 0.83408,0.731298 l 9.38038,43.15844 0.10673,0.20556 c 0,0.41901 -0.2609,0.62851 -0.7313,0.62851 z m -9.48711,-14.49155 c 0,0.28856 0.10278,0.41505 0.31228,0.41505 h 5.73575 c 0.20556,0 0.31229,-0.12649 0.31229,-0.41505 l -3.02402,-17.40885 c -0.079,-0.130448 -0.15812,-0.209507 -0.20951,-0.209507 -0.079,0 -0.15416,0.07906 -0.20951,0.209507 z m 0,0"
         fill-opacity="1"
         fill-rule="nonzero"
         id="path16"
         style="display:inline;stroke-width:0;stroke-dasharray:none;fill:#3737c8"
         transform="matrix(1.3333333,0,0,1.3333333,1.8046934,0.16666892)" /><path
         fill="#4a00ff"
         d="m 356.21689,116.65802 c -0.20556,0 -0.3874,-0.0553 -0.51784,-0.2095 -0.15812,-0.13045 -0.20951,-0.31228 -0.20951,-0.5218 V 72.66551 c 0,-0.209508 0.0514,-0.363673 0.20951,-0.521791 0.13044,-0.130449 0.31228,-0.209507 0.51784,-0.209507 h 7.50667 c 0.20951,0 0.36367,0.07905 0.52179,0.209507 0.13045,0.158118 0.2095,0.312283 0.2095,0.521791 v 43.26121 c 0,0.20952 -0.079,0.39135 -0.2095,0.5218 -0.15812,0.15416 -0.31228,0.2095 -0.52179,0.2095 z m 0,0"
         fill-opacity="1"
         fill-rule="nonzero"
         id="path17"
         style="display:inline;stroke-width:0;stroke-dasharray:none;fill:#3737c8"
         transform="matrix(1.3333333,0,0,1.3333333,1.8046934,0.16666892)" /></g></g></svg>
